<mxfile host="app.diagrams.net" agent="Mozilla/5.0 (Windows NT 10.0; Win64; x64) AppleWebKit/537.36 (KHTML, like Gecko) Chrome/135.0.0.0 Safari/537.36" version="26.2.12">
  <diagram id="Q8g4OL_wjgT9aCM8hYLp" name="PaginÄƒ-1">
    <mxGraphModel dx="1667" dy="811" grid="1" gridSize="10" guides="1" tooltips="1" connect="1" arrows="1" fold="1" page="1" pageScale="1" pageWidth="827" pageHeight="1169" math="0" shadow="0">
      <root>
        <mxCell id="0" />
        <mxCell id="1" parent="0" />
        <mxCell id="-mxfTjJ7cDSJvh04Vwjt-1" value="Business_Logic" style="shape=folder;fontStyle=1;spacingTop=10;tabWidth=40;tabHeight=14;tabPosition=left;html=1;whiteSpace=wrap;" vertex="1" parent="1">
          <mxGeometry x="90" y="310" width="290" height="210" as="geometry" />
        </mxCell>
        <mxCell id="-mxfTjJ7cDSJvh04Vwjt-2" value="SimulationGUI" style="shape=folder;fontStyle=1;spacingTop=10;tabWidth=40;tabHeight=14;tabPosition=left;html=1;whiteSpace=wrap;" vertex="1" parent="1">
          <mxGeometry x="90" y="650" width="290" height="210" as="geometry" />
        </mxCell>
        <mxCell id="-mxfTjJ7cDSJvh04Vwjt-3" value="Model" style="shape=folder;fontStyle=1;spacingTop=10;tabWidth=40;tabHeight=14;tabPosition=left;html=1;whiteSpace=wrap;" vertex="1" parent="1">
          <mxGeometry x="520" y="510" width="290" height="210" as="geometry" />
        </mxCell>
        <mxCell id="-mxfTjJ7cDSJvh04Vwjt-5" value="Uses" style="endArrow=open;endSize=12;dashed=1;html=1;rounded=0;entryX=0.5;entryY=1;entryDx=0;entryDy=0;entryPerimeter=0;exitX=0;exitY=0;exitDx=165;exitDy=14;exitPerimeter=0;" edge="1" parent="1" source="-mxfTjJ7cDSJvh04Vwjt-2" target="-mxfTjJ7cDSJvh04Vwjt-1">
          <mxGeometry width="160" relative="1" as="geometry">
            <mxPoint x="190" y="600" as="sourcePoint" />
            <mxPoint x="430" y="172" as="targetPoint" />
          </mxGeometry>
        </mxCell>
        <mxCell id="-mxfTjJ7cDSJvh04Vwjt-6" value="Uses" style="endArrow=open;endSize=12;dashed=1;html=1;rounded=0;entryX=0.5;entryY=1;entryDx=0;entryDy=0;entryPerimeter=0;exitX=0;exitY=0;exitDx=290;exitDy=112;exitPerimeter=0;" edge="1" parent="1" source="-mxfTjJ7cDSJvh04Vwjt-2" target="-mxfTjJ7cDSJvh04Vwjt-3">
          <mxGeometry width="160" relative="1" as="geometry">
            <mxPoint x="424" y="687" as="sourcePoint" />
            <mxPoint x="404" y="543" as="targetPoint" />
          </mxGeometry>
        </mxCell>
        <mxCell id="-mxfTjJ7cDSJvh04Vwjt-7" value="Uses" style="endArrow=open;endSize=12;dashed=1;html=1;rounded=0;entryX=0;entryY=0;entryDx=165;entryDy=14;entryPerimeter=0;exitX=0;exitY=0;exitDx=290;exitDy=112;exitPerimeter=0;" edge="1" parent="1" source="-mxfTjJ7cDSJvh04Vwjt-1" target="-mxfTjJ7cDSJvh04Vwjt-3">
          <mxGeometry width="160" relative="1" as="geometry">
            <mxPoint x="590" y="434" as="sourcePoint" />
            <mxPoint x="570" y="290" as="targetPoint" />
          </mxGeometry>
        </mxCell>
      </root>
    </mxGraphModel>
  </diagram>
</mxfile>
